/* XPM */
static char *_1a883a53b984a7b85ec28661231b1bd4BpjQtnwBeHBzDBx[] = {
/* columns rows colors chars-per-pixel */
"64 64 241 2 ",
"   c #07050C",
".  c #13090D",
"X  c #1B110E",
"o  c #080616",
"O  c #0A0A15",
"+  c #06051A",
"@  c #060B1B",
"#  c #0B0C1B",
"$  c #160D15",
"%  c #0E1115",
"&  c #0D111D",
"*  c #12121E",
"=  c #181418",
"-  c #1D151B",
";  c #270F10",
":  c #241517",
">  c #32261C",
",  c #070A22",
"<  c #0C0E23",
"1  c #110E24",
"2  c #120F28",
"3  c #0D1223",
"4  c #0E1329",
"5  c #0E1828",
"6  c #121424",
"7  c #171925",
"8  c #191A24",
"9  c #12152A",
"0  c #181528",
"q  c #151A2B",
"w  c #1B1B2B",
"e  c #161A32",
"r  c #181B35",
"t  c #271C23",
"y  c #361F22",
"u  c #221F38",
"i  c #1E262C",
"p  c #1C2332",
"a  c #1E223B",
"s  c #2A2429",
"d  c #372628",
"f  c #262938",
"g  c #362B35",
"h  c #37333A",
"j  c #492F31",
"k  c #483738",
"l  c #5A433C",
"z  c #64403C",
"x  c #1C1D43",
"c  c #161255",
"v  c #1E2247",
"b  c #1F2355",
"n  c #252547",
"m  c #2D314D",
"M  c #393B47",
"N  c #262756",
"B  c #2B2B5B",
"V  c #353556",
"C  c #292A66",
"Z  c #352C6C",
"A  c #2D3164",
"S  c #363768",
"D  c #2D2B74",
"F  c #352C7A",
"G  c #383977",
"H  c #453B44",
"J  c #493E53",
"K  c #3A4549",
"L  c #3F4250",
"P  c #3E446E",
"I  c #43434C",
"U  c #48484A",
"Y  c #57494A",
"T  c #464755",
"R  c #554D54",
"E  c #4C555A",
"W  c #545559",
"Q  c #67494A",
"!  c #734A49",
"~  c #73564D",
"^  c #644E52",
"/  c #68595A",
"(  c #775757",
")  c #5F645D",
"_  c #484667",
"`  c #4F546F",
"'  c #595B67",
"]  c #6B5C62",
"[  c #5D6164",
"{  c #5F6071",
"}  c #68686A",
"|  c #75706C",
" . c #686A73",
".. c #6D7477",
"X. c #75767A",
"o. c #7A7A7C",
"O. c #83584F",
"+. c #885A56",
"@. c #866559",
"#. c #99635A",
"$. c #8A6865",
"%. c #986660",
"&. c #966A66",
"*. c #946E6B",
"=. c #997369",
"-. c #907474",
";. c #A76868",
":. c #A7766D",
">. c #B5766C",
",. c #A87B76",
"<. c #B87B76",
"1. c #C57E78",
"2. c #7D817D",
"3. c #8E837D",
"4. c #B4806C",
"5. c #AA847D",
"6. c #B88478",
"7. c #C6887A",
"8. c #CF8F7D",
"9. c #373886",
"0. c #2F269B",
"q. c #443F8A",
"w. c #3D418E",
"e. c #5A5A87",
"r. c #7A7A85",
"t. c #71738E",
"y. c #7478A0",
"u. c #937A80",
"i. c #B37B81",
"p. c #7D8395",
"a. c #858689",
"s. c #95898D",
"d. c #898A94",
"f. c #8C9395",
"g. c #959897",
"h. c #9E9E9E",
"j. c #AA8587",
"k. c #B78A86",
"l. c #BB9489",
"z. c #AA8E92",
"x. c #AA9594",
"c. c #B89795",
"v. c #B5A29A",
"b. c #8688A7",
"n. c #9899A4",
"m. c #9CA2B2",
"M. c #A7A8A7",
"N. c #A3A3AB",
"B. c #B8A9A6",
"V. c #B4B7AF",
"C. c #ACAEB5",
"Z. c #B2AEB4",
"A. c #AEB1B6",
"S. c #B9B9B8",
"D. c #C48D82",
"F. c #C88886",
"G. c #D38A88",
"H. c #CC9182",
"J. c #C79589",
"K. c #CC948C",
"L. c #D6958A",
"P. c #C78D92",
"I. c #CD9393",
"U. c #C89795",
"Y. c #D79894",
"T. c #E29B96",
"R. c #C4A39E",
"E. c #DBA595",
"W. c #D4A29C",
"Q. c #DBA39B",
"!. c #DAAA9A",
"~. c #E4A89C",
"^. c #E2B09D",
"/. c #D99FA0",
"(. c #C6A8A7",
"). c #D7AAA6",
"_. c #DAB3A8",
"`. c #C4B3B1",
"'. c #CAB8B5",
"]. c #D8BAB3",
"[. c #E2ABA4",
"{. c #E8A9A4",
"}. c #E4B3AB",
"|. c #E7B6A9",
" X c #F2B1AA",
".X c #E7BAB3",
"XX c #EBBBB3",
"oX c #B8C0BB",
"OX c #CFC3BA",
"+X c #EBC1AA",
"@X c #EBC4B4",
"#X c #EDC3BB",
"$X c #E9C6B9",
"%X c #F5C8BC",
"&X c #BEBCC2",
"*X c #A1B4D1",
"=X c #C9BEC5",
"-X c #BBC3CE",
";X c #C6C6C6",
":X c #D7C5C6",
">X c #D4CCCC",
",X c #D3D4CD",
"<X c #C8C9D3",
"1X c #D0CED0",
"2X c #CDD3D6",
"3X c #D4D5D4",
"4X c #D7D9D6",
"5X c #D5DADA",
"6X c #DBDDDC",
"7X c #EDC4C3",
"8X c #ECCBC2",
"9X c #F1C8C3",
"0X c #EFD1C2",
"qX c #E0DDDC",
"wX c #DDE2D4",
"eX c #DDE2DD",
"rX c #E1E3DE",
"tX c #E4E8DE",
"yX c #DCDEE2",
"uX c #DDE3E3",
"iX c #DDE8E6",
"pX c #E4E4E3",
"aX c #E8E7E5",
"sX c #E5E9E4",
"dX c #E9EAE6",
"fX c #E5E6E9",
"gX c #E5EBE9",
"hX c #EBEBEA",
"jX c #EBEBEB",
"kX c #ECECEC",
"lX c #ECECED",
"zX c gray93",
"xX c #EEEDEE",
"cX c #EEEEEE",
"vX c #EFEFEF",
"bX c #EDF1EC",
"nX c #F1F3ED",
"mX c #E9EDF0",
"MX c #EDF3F1",
"NX c #F3F5F2",
"BX c #F6FAF6",
/* pixels */
"vXvXvXvXvXvXvXvXvXvXvXvXvXvXvXvXvXkXvXvXvXkXkXvXvXvXkXkXhXkXhXhXhXhXhXhXhXhXhXfXfXhXfXfXaXfXfXaXaXpXpXpXpXfXpXfXpXaXpXpXpXaXaXaX",
"vXvXvXvXhXvXvXvXvXhXvXvXvXvXvXkXvXvXvXkXvXvXvXvXhXkXvXkXvXkXvXhXhXhXhXhXgXfXhXdXaXaXaXaXaXaXpXaXpXfXaXpXpXpXpXpXfXpXfXpXpXaXhXaX",
"vXhXhXvXhXvXvXvXvXhXmXvXvXkXvXvXnXkXvXvXhXkXvXkXvXkXhXkXhXhXvXhXhXhXhXhXhXdXaXfXhXaXfXpXaXpXaXfXpXsXpXpXpXpXpXpXpXpXpXpXpXaXaXaX",
"vXvXvXvXvXvXvXhXhXvXnXkXvXvXvXkXmXhXvXvXvXhXkXvXhXvXkXhXhXhXhXhXhXhXhXaXfXfXaXhXfXfXaXaXpXfXpXpXpXpXpXpXpXpXpXyXpXpXpXpXpXpXaXaX",
"vXhXhXvXvXhXvXvXvXkXkXvXhXvXkXkXvXvXvXhXvXvXhXvXhXkXhXgXkXhXhXdXhXhXhXaXdXfXdXaXaXaXpXfXpXpXpXpXpXpXpXpXpX6XpXpXpXpXpXpXpXpXpXpX",
"vXvXvXvXvXvXhXvXvXvXvXvXvXkXhXvXhXhXhXvXhXkXvXhXhXgXfXmXpXiXgXsXsXsXsXsXfXdXaXfXfXaXaXpXfXpXpXpXpXpXqXpXpXpXpXpXyXpXpXpXpXpXpXpX",
"hXvXhXvXhXvXvXvXkXkXvXkXhXvXvXkXhXvXvXhXlXbXhXkXsXrX3X=X<X2X<X<XpXuXpXsXaXaXfXaXpXfXaXfXpXpXpXpXpXeXpXpXpXrXrXpXqXfXpXpXpXpXpXpX",
"vXhXvXvXvXhXvXvXvXvXvXvXkXhXvXkXvXvXhXhXvXvXkXfX6XM.' R } ] U R X.<XpXfXsXaXfXaXaXfXpXpXpXpXpXpXiXpXpXpXpXpXpXrXqXpXpXyXpXpXqXpX",
"kXkXkXvXkXkXkXvXhXvXvXhXkXkXkXvXvXhXkXvXkXdXsXfXg.h g s g y y d t U =XfXrXsXaXpXpXpXfXpXsXpXpXpXyXpXrXrXpXpXrXyXpXqXqXpXpXpXqXpX",
"vXvXkXkXkXvXkXkXkXkXvXvXkXvXkXkXkXhXhXvXdXdXfXN.M y j Q ( *.@.! k t J 2XaXpXpXaXpXaXpXpXsXrXrXpXpXyXpXrXqXyXpXpXpXpXpXpXyXpXpXyX",
"kXkXvXkXvXkXkXkXvXkXkXhXkXkXvXkXhXvXvXvXdXaX-XI m z :.:.6.7.7.7.;.k ; / yXiXeXpXpXsXpXpXpXeXuX3X;XpXpXrXpXyXrXpXpXpXqXyXpXyXpXqX",
"kXvXkXkXvXkXvXkXhXkXkXkXkXkXkXkXvXhXhXhXsXsX} s Q :.7.6.D.H.8.8.D.&.y O a.dXeXsXpXpXiXpXsXeXuXR.l.pXyXpXrXpXrXpXqXyXpXpXqXpXpXpX",
"kXkXvXkXvXkXkXkXkXkXkXkXhXkXkXkXvXkXhXhXmXoXf g $.<.8.H.L.K.F.F.J.6.k 0 g >XrXpXpXrXsX>X(.wX6XQ.Y.6XrXpXrXqXpXyXqXyXpXqXpXyXpXqX",
"vXkXvXkXkXkXvXkXvXkXkXkXkXkXkXkXhXvXhXdXmXg.- d &.:.+.:.L.P.*.^ ~ :.( t : o.rXpXrXrXhX`.<.>X2X'.'.4XyXqXeXyXrXpXpXpXyXpXpXpXpXpX",
"vXkXkXkXkXvXvXkXkXkXkXkXkXkXkXkXhXkXMXsXuX .= d +.! +.,.U.Y.I.1.6.&.+.: : H Z.sXpXrXsX;XU.:X<X(.W.>X6XyX6XpXrXpXqXpXpXyXpXpXpXyX",
"kXkXkXvXkXkXkXkXkXkXkXkXkXkXkXkXkXhXhXjX<XH * j ~ :.F.G.7.Y.1.#.+.:.=.y . t } 6XtXrXtX4XR.(.'.B.W.B.,XuXrXrX6XqXqXqXqXqXyXpXqXpX",
"kXkXkXkXkXkXkXkXkXkXkXkXkXkXkXkXhXhXdXvXN.- - j #.;.l +.<.7.<.*.( #.4.k ; : E ;XsXrXrXiX(.Y.).c.J.U.`.eX6XrXqX6XrXrXyXqXpXpXpXqX",
"kXkXkXkXkXkXkXhXkXkXkXkXkXkXkXhXhXhXkXkXo.X = d &.O.$.i.i.F.<.I.I.7.>.! i.] s.S.aXrXeXaX>XU.I.G.G.G.k.:XeXeXqXpXqXrXpXyXpXyXpXpX",
"kXhXkXhXhXvXhXkXhXkXkXkXkXkXkXkXhXhXhXfX| X   ; #.>.I.I.i.Q.7.7.Y.L.7.+.j.$.N.S.tXtXrXrXyXc.K.G.G.T.Y.).4XeXpXqXrXyXrXyXqXyXyXpX",
"hXkXhXvXhXhXkXhXhXkXkXkXkXkXkXkXhXaXdXfX| - - ! O.1.G.G.<.l.>.H.T.T.G.~ $.k a.4XtXpXpXpXuX`.)./.{.).[.).:XpXyXpXpXpXpXrXqXpXqXpX",
"vXkXhXhXhXvXhXhXhXkXkXkXkXkXkXhXhXlXhXlXa.k y / ( 1.8.T.i.j.k.7.T.T.F.( l R g.hXqXpXtXrXuX'.].U.{.}.{.[.=XfX6XeXrXpXpXyXpXpXrXrX",
"hXhXkXhXhXhXhXhXhXhXhXkXkXhXhXhXlXhXlXbXB.| k k ~ <.G.L.6.U.P.:.6.H.k./ s d.6XgXaXaXtXrXsX`._.Q.I.{.{.}.=XyXpXuXrXqXpXpXpXpXyXpX",
"hXhXhXhXkXhXhXhXhXkXhXkXkXkXmXkXhXhXhXhX3Xg.W h k :.8.1.#.;.>.;.6.8.5.Y U Z.uXaXpXpXsXrXtX'.(.8X/.T.{.{.].yXpXpXyXpXqXpXyXpXpXpX",
"hXhXhXkXhXhXhXhXhXkXkXkXkXhXhXhXlXhXhXvXfX&Xa.Y X @.4.7.>.k.F.G.8.6.&.k h N.6XaXpXsXaXrXsX>XB.7X}.~.}.}.].yXpXyXyXpXrXpXqXpXpXqX",
"hXhXkXhXhXhXhXhXhXhXhXkXkXhXhXhXhXjXhXjXdXtXM.W - j =.>.6.6.k.P.J.=.@.~ - f.gXsXaXaXpXpXeXeXB._.XXXX7X}.].yXrXiXpXpXpXqXpXpXpXpX",
"hXhXkXhXkXhXvXhXhXhXhXhXhXhXhXkXhXhXjXjXdXsX;Xh s k z @.4.K.c.j.( l 6.( i r.6XsXpXpXfXsXrXsXOXx..X.X#X}.'.yXeXeXpXqXpXpXpXpXpXyX",
"hXhXhXhXhXhXhXhXhXhXhXkXhXhXvXhXjXhXhXjXgXdX3XY U $.@.j > @.5.d > ,.8.=.g n.hXtXaXtXsXsXsXrXeXv.]..X@XXX(.5XiXeXpXpXpXpXqXpXpXpX",
"hXhXhXvXhXhXhXhXhXkXhXhXhXhXhXhXhXhXhXvXjXgXsXA.| ~ 6.%.d -.l.$.@.8.8.5.] C.dXrXsXtXpXsXsXpXrXOXR.@X$XXXR.>XeXpXrXrXpXyXpXpXpXpX",
"hXhXhXhXhXhXhXvXvXfXhXhXhXhXkXhXjXjXjXjXjXdXjX5Xo.( 6.6.@.l.!.K.,.E.I.:.x.2XsXtXpXsXpXsXaXtXpX6Xx.).].#X].(.eXpXpXqXpXpXpXpXpXpX",
"hXvXhXfXhXhXhXhXhXhXhXhXhXvXhXhXhXjXjXjXdXdXsXuXA.=.4.6.@.H.L.E.l.}.K.6.| 2.g.eXbXdXrXsXpXsXiXgX'.l._.$X%X(.>XeXpXpXpXpXpXfXpXpX",
"hXhXhXhXhXhXfXhXhXhXhXhXhXhXhXhXhXjXhXjXdXjXrXM.) =.7.k.=.Q.~..X6.!.Y.&.) f & W h.eXsXbXkXdXpXuX6Xx.U.$X8X].B.yXrXpXpXpXpXfXpXfX",
"hXhXhXhXfXhXhXhXhXhXhXhXhXhXhXkXjXjXjXsXdX6X) * W $.K.J.:..X[.XXl._.$./ W q f q w E a.n.h.OXgXeX6XZ.k..X8X9Xc.>XpXpXfXpXaXpXpXpX",
"hXhXfXhXhXhXhXhXhXhXhXvXhXhXkXsXbXdXtXbX3XU % 6 I R ^ U.,.@X+X+Xv.j U X.w 0 0 w w 6 6 7 7 g [ M.3X1Xi.W.$X0X(.v.sXiXpXpXpXfXdXaX",
"hXhXhXhXhXhXhXhXhXhXhXhXhXhXhXvXsXtXdXA.h & 7 6 * ) U : H ] / H X h X.s 6 q 0 9 0 q 0 0 8 8 7 w I h.B.k.#X8X.X5.:XsXpXpXpXsXfXpX",
"hXhXhXhXhXhXhXhXhXhXdXfXhXdXsXdXhXwXX.* < q 3 3 * - { E %     + E 2.% & 3 3 < 1 6 6 * 6 6 3 q w 0 w ' 5..X8X#XJ.x.rXsXsXaXaXgXaX",
"fXhXhXhXhXhXhXhXhXhXhXhXhXdXsXlX<XL @ 5 5 , & 3 5 & s } W I K 2.| & & 3 < 3 3 3 3 5 5 5 5 5 3 3 6 0 O ! ^.#X$X_.,.;XgXfXfXfXaXfX",
"hXdXhXhXhXhXhXhXhXhXhXhXhXsXbX-Xf % q 3 & & & 3 & 3 * s I g.o.l   2 1 6 3 < 3 & 6 6 6 6 3 3 3 3 * 0 0 j U.XX8X.Xk.c.gXsXsXaXfXsX",
"hXhXhXhXaXhXfXhXfXhXfXdXbXdX2Xh % 7 3 5 3 5 3 3 5 3 3 % } V.)   0 1 # 3 3 3 3 & 6 6 6 3 4 5 , 3 6 6 9 t 5.@X8X#X~.,.>XsXsXhXhXfX",
"hXhXhXhXhXhXhXhXhXhXhXhXdXbX..@ 8 6 3 3 , 3 < < 3 5 & s a.} ' + 0 1 # 3 & 3 & 3 9 3 6 3 3 3 , & * 6 1 * *.|.%X9X}.6.(.gXaXhXhXaX",
"hXhXfXhXhXhXhXhXfXdXhXsXsX;Xi 9 5 & 3 3 3 3 3 3 3 5 , f s.g.I o 1 1 3 , & & 3 3 9 3 6 4 3 < , < 6 6 * 2 *.^.$X8XXXY.5.qXhXfXhXhX",
"aXhXfXhXhXfXaXhXfXhXdXtXnXa.% q & 5 3 3 & 3 6 6 3 5 3 5 I  .r...I o # 3 < 3 3 < 3 6 3 3 3 @ 3 3 * 6 6 6 $.^.@X9X7X~.,.'.bXdXjXjX",
"hXfXhXaXaXhXhXfXhXaXdXdX5Xh 6 9 3 & 3 3 3 6 1 < , 5 5 * & + r.S.f 2 6 < < 3 3 3 4 9 9 3 < , , 3 1 1 8 * ( [..X9X9X|.H.c.dXdXjXjX",
"aXaXhXhXhXdXhXaXhXdXsXnXC.6 6 e 3 & 5 3 < < 4 1 5 5 5 3 # 8 g.n.f o 0 6 2 1 3 5 4 6 3 9 3 < 3 4 6 6 w * ^ Q.XX%X0XXXE.6.4XlXdXjX",
"hXhXfXhXfXhXfXhXfXdXtXbXo.# 0 0 5 3 5 3 < 4 9 3 4 q 6 L } h.n.d.f.a.| # < 0 6 5 9 6 < 9 3 3 5 9 0 0 0 I c.D..X%X0X@X~.l.OXmXdXbX",
"dXhXhXaXhXfXhXaXhXdXsXeXK & 3 3 3 3 5 3 6 4 < 9 5 5 3 [ uX5XN.'.&XyX} J f < & L q 6 3 6 6 < 5 9 0 w 0 s.Y.7._.%X%X@XT.6.B.MXgXhX",
"hXfXhXhXdXhXfXhXfXdXhXS.* 8 & , 5 3 < , 6 4 f 7 5 p E f X.;XC.Z.A.u.u M R T E ..< 3 3 4 9 4 5 & 7 6 M c.Y.Q._.@X%X X~.8.k.bXhXlX",
"fXhXaXfXhXdXaXhXdXsXbXX.O 7 & & & @ @ @ < , K E 3 E M V V 6Xb.G 2X .N _ m K -XK @ 6 4 9 9 6 @ r.h.J g j.P._.}.}.#X@X%XL.6.bXgXbX",
"fXaXhXfXaXfXfXaXgXdX5XM # * & 3 @ @ + + @ 3 w M...m _ P e h.A.y.A.L B _ B u.sXf < 9 9 6 q & ' iXgXfXg.H -.U.|.!..X|.^.j.'.MXjXvX",
"dXhXaXfXhXaXaXaXaXvXA.% & & & # # @ o @ @ 3 # d.fX{ A P ` L -XuX ._ { P _ 4XA.f 4 q 9 5 7 5 -XMXsXdXBX..O k &.l.l.D.k.:XbXgXmXbX",
"aXfXfXaXfXaXaXsXfXNX .o * & & @ # O # @ @ , 3 M >X<XS V p.< f.gXf { d.v t.-Xr.p 9 3 5 q i & m.MXdXjXbXeX..) M.,X,X6XdXNXhXkXvXbX",
"fXhXhXaXfXaXaXpXaXfXM # 3 & @ % # # 1 o + , 9 6 ..N._ f sXW 3.nX .4X,X[ a.,XX.5 9 6 q 5 p & f.BXdXjXjXbXBXBXnXvXNXvXhXdXhXvXvXvX",
"aXaXfXaXfXaXfXsXsX<X7 * & % # # # O # # @ # 3 & L m.t.A.nX5XtXnXvXfXBX5X2XBXp.@ w 3 q 5 p & ..BXdXdXjXhXhXhXvXkXhXvXvXhXvXvXkXvX",
"aXfXaXfXaXfXfXsXvXC.% - * * # # # O O o + 1 6 # h -X-XbXbXwXtXdX6X,XwX1X5XMXp.@ e 9 9 q p 5  .bXhXvXvXvXhXvXvXxXvXvXvXvXkXvXkXvX",
"fXaXfXpXaXaXfXpXhXX.O 0 & # % # # # O o < 1 * 1 r m.*X*X;XN.p.} 3.h.-Xp.y.n.) 3 q q 9 q p q E gXlXhXhXvXvXhXkXnXhXvXhXvXvXvXkXvX",
"aXaXaXfXpXgXaXpXtXU O # # * * # o o O o o 2 # 2 9 t.e.b.-X<XuXtXpX3X*Xt.{ m q q 6 9 q e p q K wXvXkXvXhXhXvXkXkXvXvXmXNXvXvXvXvX",
"aXfXaXaXfXaXaXpXsX4Xd.E 7 o . o $ 1 # o # * * 1 3 n T [ {  . .W T M f f q q N N n e 9 e p i i -XbXvXhXvXvXkXkXvXkXvXbXlXkXvXvXvX",
"pXaXpXpXaXpXpXpXsXdXbXuXS.X.j g * o . 0 3 # 6 1 r x r < B C N N C D q.G N B A B C 9 9 e r f 8 V.NXkXkXkXkXvXvXvXvXvXvXvXvXvXvXvX",
"fXaXfXfXpXpXfXpXaXpXtXeX6Xc.U.).(.z.-.-.M + 9 r n V S x S F B D F C F D N B B C C e 6 e r f i g.BXhXvXvXkXkXkXkXvXhXvXhXhXvXvXvX",
"pXpXpXpXpXpXpXpXpXpXsXtX3X5.~.}.|.|.U.u.T o 6 n n r F B D 0.N c A D 9.G S N 9.Z D r 6 q w f e y.NXhXkXkXvXkXvXvXvXvXvXvXvXvXvXvX",
"pXpXpXpXpXfXpXpXaXpXeXgX;X6.{. X~.!.D.-.h < 6 n B 2 G N C 9.S w.A F 9., a C D C G v 3 q q a e } nXfXkXhXvXkXkXkXvXkXkXvXvXvXvXvX",
"pXfXpXpXpXpXpXpXpXpXtXgXV.D. X[.Q.}.Y.] * 6 # N 9.< F N N x @ w.9.F w.N G Z A N n r 4 9 e a a  .nXhXhXvXhXkXvXvXkXvXvXkXkXvXvXvX",
"pXpXpXpXpXpXpXpXaXpXeXiXc.H.{.E.W._.U.^ o 6 3 v b n S N N x # v C b S C N e q 3 3 3 9 6 p a e [ nXhXhXhXkXvXkXkXvXkXvXvXvXvXvXvX",
"pXpXpXpXpXpXpXsXpXpXeXeXx.7.~.Y.Y.W.Y.H O 6 3 9 9 r 6 q 9 9 9 3 5 4 3 < 3 6 3 3 9 3 5 3 q p q  .nXhXhXkXkXkXkXhXhXkXvXvXvXvXvXvX",
"pXrXpXpXpXpXeXeXeXeXeX3Xj.Y.Q.E.I.I.P.s # 7 6 3 3 3 6 3 3 9 3 5 3 9 9 q 6 6 6 3 6 6 6 3 q p 6 d.NXfXhXhXkXkXkXvXkXvXkXkXvXkXkXvX"
};
