/* XPM */
static char *cc1c6ee1305045acbc0cbb9e10b5ed0ayZwO8ablZD6XAag4[] = {
/* columns rows colors chars-per-pixel */
"64 64 250 2 ",
"   c #040304",
".  c #0B0504",
"X  c #0C0906",
"o  c #090608",
"O  c #130604",
"+  c #190605",
"@  c #140906",
"#  c #1B0A05",
"$  c #150A09",
"%  c #1C0C0A",
"&  c #1C110D",
"*  c #1E1210",
"=  c #220A06",
"-  c #2A0A05",
";  c #230D0A",
":  c #2A0E0A",
">  c #330B06",
",  c #320E0B",
"<  c #25110D",
"1  c #2B130D",
"2  c #22180F",
"3  c #33130C",
"4  c #3C140D",
"5  c #37180E",
"6  c #2E0F10",
"7  c #251411",
"8  c #2B1511",
"9  c #2D1915",
"0  c #2B1C18",
"q  c #331612",
"w  c #3C1512",
"e  c #331A14",
"r  c #3B1B14",
"t  c #341D19",
"y  c #3B1D19",
"u  c #2E2115",
"i  c #3C2217",
"p  c #34221B",
"a  c #3C221B",
"s  c #3A2723",
"d  c #43150C",
"f  c #431A0E",
"g  c #49190D",
"h  c #421611",
"j  c #431C13",
"k  c #4B1C12",
"l  c #521C11",
"z  c #4A210F",
"x  c #442115",
"c  c #4B2214",
"v  c #43231B",
"b  c #4B251A",
"n  c #47281A",
"m  c #4C2A1C",
"M  c #542415",
"N  c #562719",
"B  c #532B1C",
"V  c #5A2C1B",
"C  c #56301C",
"Z  c #5B321D",
"A  c #682D1D",
"S  c #64331D",
"D  c #68361E",
"F  c #442B24",
"G  c #462B26",
"H  c #4B2C23",
"J  c #532C22",
"K  c #572D23",
"L  c #4C332B",
"P  c #49342A",
"I  c #523125",
"U  c #5C3322",
"Y  c #54342B",
"T  c #5B362C",
"R  c #5B392C",
"E  c #463736",
"W  c #553B34",
"Q  c #5D3B32",
"!  c #642D21",
"~  c #643A23",
"^  c #693825",
"/  c #633B2C",
"(  c #763A27",
")  c #643E33",
"_  c #713F30",
"`  c #5B423A",
"'  c #68412B",
"]  c #74422C",
"[  c #7A4729",
"{  c #7C432D",
"}  c #644234",
"|  c #6B4334",
" . c #64443B",
".. c #6A453A",
"X. c #6A4A3B",
"o. c #734433",
"O. c #7C4533",
"+. c #744A35",
"@. c #7D4B34",
"#. c #734B3B",
"$. c #7B4D3B",
"%. c #7E533D",
"&. c #694742",
"*. c #6C4C43",
"=. c #734E43",
"-. c #685248",
";. c #7C5543",
":. c #775649",
">. c #6F5959",
",. c #775B55",
"<. c #7C5C52",
"1. c #7E6252",
"2. c #84462C",
"3. c #844B33",
"4. c #8A4C33",
"5. c #864B38",
"6. c #934E37",
"7. c #8C5334",
"8. c #83543C",
"9. c #8C533B",
"0. c #885638",
"q. c #925236",
"w. c #93543B",
"e. c #98563C",
"r. c #945A3D",
"t. c #9A5A3F",
"y. c #9C5D3E",
"u. c #924E41",
"i. c #885946",
"p. c #955B44",
"a. c #955946",
"s. c #9C5D42",
"d. c #855D56",
"f. c #A45E46",
"g. c #9C6245",
"h. c #97674A",
"j. c #9C634B",
"k. c #836355",
"l. c #89665A",
"z. c #976A57",
"x. c #9A7054",
"c. c #A26246",
"v. c #A3654A",
"b. c #A76B4A",
"n. c #A46A4E",
"m. c #A8744C",
"M. c #A56C52",
"N. c #AA6D53",
"B. c #B26F51",
"V. c #AC7255",
"C. c #AA7858",
"Z. c #B37354",
"A. c #B67759",
"S. c #B27A5C",
"D. c #8A6D63",
"F. c #8C7269",
"G. c #93756B",
"H. c #987768",
"J. c #987B76",
"K. c #A97B65",
"L. c #BB7C62",
"P. c #C37C64",
"I. c #AB825D",
"U. c #B9845A",
"Y. c #9E856A",
"T. c #9D817A",
"R. c #A88368",
"E. c #BC8464",
"W. c #B88768",
"Q. c #BC9368",
"!. c #A28374",
"~. c #A6887C",
"^. c #B48D78",
"/. c #AC907F",
"(. c #B79578",
"). c #C48768",
"_. c #C48C6C",
"`. c #C5966A",
"'. c #C88C71",
"]. c #C39473",
"[. c #C79975",
"{. c #CB9B7C",
"}. c #C9A37D",
"|. c #D2A875",
" X c #9E8583",
".X c #A68B86",
"XX c #AE8F89",
"oX c #AE9283",
"OX c #A7918B",
"+X c #AD948B",
"@X c #B39584",
"#X c #B79886",
"$X c #B3968B",
"%X c #B59A8C",
"&X c #B99D8D",
"*X c #AB9493",
"=X c #AA9796",
"-X c #B49D92",
";X c #BA9E92",
":X c #B69B99",
">X c #B29D9C",
",X c #B8A38C",
"<X c #B7A296",
"1X c #BBA295",
"2X c #BCA599",
"3X c #BDA99C",
"4X c #B39EA1",
"5X c #AFA2A1",
"6X c #B5A3A4",
"7X c #BAA5A4",
"8X c #B9A8A8",
"9X c #BCABAC",
"0X c #BEAEB2",
"qX c #BEB2B6",
"wX c #CA9E85",
"eX c #C7A387",
"rX c #CDA284",
"tX c #D1A589",
"yX c #D3B78A",
"uX c #D0B68F",
"iX c #C3A99A",
"pX c #C2ADA7",
"aX c #CAB5AB",
"sX c #C2AFB2",
"dX c #C2B2B4",
"fX c #CBB8B7",
"gX c #C3B6BB",
"hX c #C5B9BC",
"jX c #C9BABC",
"kX c #D4BDB3",
"lX c #D5CDB1",
"zX c #E5D6A9",
"xX c #C8BDC4",
"cX c #CCC1C5",
"vX c #CCC4CA",
"bX c #D2C8CB",
"nX c #D7D9C8",
"mX c #CECBD1",
"MX c #D2CCD4",
"NX c #CFD2DC",
"BX c #D3D1D5",
"VX c #D8D5D9",
"CX c #E0E0D2",
"ZX c #E9F0D6",
"AX c #D8DBE5",
"SX c #DDE2ED",
"DX c #DEE8F4",
"FX c #EAFAEB",
"GX c #E2E8F1",
"HX c #ECFEFC",
/* pixels */
"lXzXnXZXFXHXHXGXZXnXlXzXuXyXyX|.Q.;.p X o   X   o X   :.|.|.|.`.`.Q.Q.U.m.m.m.m.}.}.h.h.r.D N z z c o.0.g.U.m.C.m.U.eXlXI.h.g.[ ",
"FXFXFXHXHXHXHXHXFXZXzXlXeX(.R.-.u X   o   X       o 2 `.|.|.|.Q.Q.Q.Q.U.m.m.Q.|.yXm.h.I.0.D Z z f 3 - 5 V ] 0.h.x.Q.uXzXI.0.%.' ",
"lXlXnXnXnXCXnXlX,XY.k.+.~ m r @     o X X     X X   ` |.`.Q.`.`.`.`.U.U.I.yXzXzXY.h.h.~ B D Z z f f 5 3 > - > : * p ` ` p & & @ ",
"s e 9 p L n 9 r x z z z c M M u @ X .     @ 2 5 z i h.U.m.m.m.U.U.m.U.U.Q.yXyXh.` #.@.z - B S B z k 5 5 4 4 3 :       .     X X ",
"p 7 @ 1 q # # < 5 x Z Z Z C C C m c i e i c m B B C U.`.U.U.m.U.m.m.m.m.Q.zX|.I.R B D V > g V M z f 4 3 4 4 4 4 O   $ ;   X X o ",
"a 7 < i = O s ` @ X & C Z Z C C C Z V Z V V V V B S U.`.U.U.U.U.U.`.`.Q.|.zXzXQ.Q.H.D N g V M z f 4 3 : : : , - % 2 v 1 X X @ X ",
"9 ; a @ $ X 0 s . X @ 2 Z Z Z Z V B Z Z C V V Z C S m.I.m.m.m.U.|.U.%.' ~ ' %.%.nXlX2.z V D A V M k d 3 = = : : 1 y n i 2 X 2 o ",
"= W * & @ @ ; e m Z ~ ' ~ D D S Z ~ U U U U Z S Z S 7.r.7.7.U.I.~ z i n C C z u F.pXg.[ [ 2.[ ( S N g 4 , = = : % : 1 p P   &   ",
"1.X.5 Z C B v r c c c c b B B B ~ ~ ~ ^ ~ ~ S ~ ~ S D [ @.m.h.h z | @.%.$.$.) J d x 0.h.0.[ ( D N M h 4 3 , : : X ; t % % o o . ",
"D.D ^ ^ C 5 : h y j w 4 > w 4 4 r f h x b C U Z ~ ~ ~ 7.b.m.x K %.+.%.%.$.=.o./ K h n p.0.[ D V N k k 4 4 6 , ; . < Y 7         ",
"' ' V k 3 3 h 3 4 c b c 4 x k j d d h 4 4 > 4 r i z c I.|.' b o.;.i.%.8.a.h.V.g.S b 3 +.0.[ D V l z h h w 4 , @   . P &       o ",
"z 5 4 f 4 k d 4 b x x i x r j j j x j i x h d f 5 z 3 %.`.r T ;.$.%.i.x.W._.).Z.] n 5 Z 0.3.D N M g d w 4 4 :       0 $     o o ",
"= 3 h j k h h v x r y e 1 r j 5 3 e q 1 p r r r n 5 f z | k K o.+.8.N.wXtX'.P.B.@.K j j i.7.7.^ N g d 4 w w + % $ @ u . o o % @ ",
"# , f g k B r w 1 r r : 1 1 < # @ # % % = ; 1 ; < 1 1 1 j 8.a.a.S.'.{.tXtX{.).Z.@.U j w 0.r.7.[ ^ M f d w = @ + % % p O $ $ 1 : ",
"8 = ; j H y 8 7 # # % 8 q e e 7 $ $ @ @ < 3 q 1 ; @ X @ h c.E._._.'.[.tXtX{.P.B.p.^ b M t.e.r.3.[ S V j % . @ $ = ; 0 X % + 3 3 ",
"4 c i < % % $ $ % % : 8 e 3 ; $ $ % @ # < 1 + $ $ @ % e w 5.N.L.).'.'.tXtXwX).Z.Z.f.N 5.A.y.r.r.3.( n # O . X $ 7 1 8 O + % 3 3 ",
"j v 3 @ X . $ % $ @ $ ; + ; < 7 ; $ $ % 8 1 = # = % 7 8 = ( B.P.'.P.P.wXwXK.f.u.B.A.( ( A.A.b.h.+.e . . # X X X O q & X @ % w w ",
"r 1 7 % @ ; ; + % X ; r j v j q 6 $ $ ; 1 3 n I ..=.,.:.W ^ Z.L.P.P.N.( h : l 2.B.A.u.( P.Z.+.t o   X . = - - = $ 4 1 ; @ O 1 r ",
"r e ; @ @ r r e 6 $ $ % 8 y = ; $ $ v b / X.1.J.~..XoX/..Xa.^ U ! j.N.( A ( u.L.).A.a.^ ).a.      o   < d S 8.: # f 4 l H $   % ",
"j b 3 < @ 1 b j % ; % o $ % + $ O 9 k J <.T.$X%X;X&X&X%X;XH.d , 6 ! P.P.B.B.L.wX).B.e._ L.n   O o . . 8.[.i./ U h g j g b + o X ",
"3 3 j 1 @ % 8 < X $ % $ $ % r w O 8 b d.XX;X%X%X-X-X%X$X$XoX| ( u.6.P.P.P.P.'.P.Z.v.9.^ h o o o X     ) i.> M n.~ > c c ;   o   ",
"3 5 b : ; O . O # % + % $ % 7 < $ O  .$X%X%X;X%X%X%X%X%X$X#Xz.u.f.u.L.P.P.P.P.L.Z.v.9._ N   o % % @ X O = j k ^ V 4 4 1 e 1 < 7 ",
"- r v q r 5 p v L ) W j ; = O X O < H.;X%X%X;X%X;X%X#X%X@X@XR.O.u.6.P.P.f.P.P.A.Z.j.3.O.2.: . % < 1 X $ = ; 3 n r : % . # i 3 % ",
"M B I b H :.D.J.!.~.J.k...a # % < H oX;X;X;X;X;X;X&X%X#X#XoX#Xl.2.6.6.u.f.'.P.B.f.u._ 3.4.( x . 1 5 # O = : a F e 7 < < W Y 0 & ",
"k J J &.J.#X;X1X1X1X;X;XXXF.Y 1 = R #X1X;X;X;X;X;X&X%X#X#X^.K.j.{ O.l ! u.u.5.u.a.8.^ 9.t.e.Z.r.$.) :   % 9 q 8 8 : 1 < W L  .-.",
"j j #..X;X$X;X;X;X<X;X&X:XeXoX&.e Y XXiX;X;X;X%X#X#X%X@XW.V.b.v.z.K h l ! ! ! l _ ) ^ a.s.f.)._.'.kX>XW 1 + t F 8 ; e 1 e 1 3 9 ",
"- n ~.;X#X-X;X;X;X;X;X;X;X;XiX.X .I G.iX;X&X&X%X#X#X/.W.U.A.N.n.wX&.h A ( ( u._ h N ( p.g.b.`.`.iXGXDXVX<XW s -.y % 8 1 1 % @ $ ",
"e d.XXJ..X;X;X;X;X1X1X;X:X;X$XeXG.Y } %X1X;X,X,X%X@XW.).).U.Z.L.XX=.J h N u.a.H < ! O.p.c.B.'.eXVXDXAXAXVXoXH % 3 ; # 8 e % o X ",
"a G.oX:.D.$X;X;X1XiX;X;X;X;X;XiX$XY } D.;XiX%X#X&X^.)._.).U.Z.&X.Xd.) = h y 6 o j o.9.r.j.L._.kXDXGXDXGX^.Z.b.a e 1 ; 1 < O @ @ ",
"# k.#X!..X$X$X%X;X;XiX;XiX;X;X&X1X=.| <.l.oXiX,X#XC.U.`._.).W.aX.X.Xd.= $ o o + K [ 8.s.V.L.].VXGXAXDXaXE.A.Z.u.q 1 % 1 5 < $ $ ",
"t Y -X$X@X$X$X;X;X;X;X2X;X;XiXiX&XJ #.) ` :.l.~.^.N.U._._.U.wXfX=X7Xd.l @ $ $ + r ] 0.n.K.W.kXSXAXGXbXrX{.E.A.Z.U r r 1 i x e t ",
"F v 1.;XoX$X$X%X;X;X;X;X;X;X;XpXG.Y :.} Y Q P  .%.V.U.)._.E.pXxX9XfXl.N : ; = + 4 _ 8.j.K.wXAXAXAXCXwXtXrX[.E.Z.c.j x e i c c v ",
"Y F 1 <.;X%X@X$X;X%X%X&X&X2XiXJ.T &.:._ ) ) ) F ^ N.S.E.E.E.kXmXjXdX.XM , 6 8 : F @.M.M.K.VXSXAXSXtXwXwXeXrX_.A.A.( e w # r B c ",
"1 s % 1 ` Y.&X:X;X;X1XiXiX#X<.3 W :...#.) .. .y ] v.m.C.S.W.vXMXxX9X*Xd.b - - : k u.z.K.cXSXAXAXaX'.wXtXuXtX[._.A.p.a a n 1 v i ",
"j % & s 8 9 L J.-X+X.XT.D.X.3 : Q :.Y =.) ) Q y ] s.g.M.M.K.vXMXcX9X.XJ.d.=.H H _ G.2XMXAXNXAXnX].].wXtXtXtX{._.).f.N F B 5 1 r ",
"w t % 9 F a s F. XD.,.=.*.X.T Y :.K.) ) &.) T I _ q.9.p.a.x.xXgX4X*X.X X.X$XJ..XjXMXNXNXMXNXVXpXL.[.{.{.eXtXrX_.U.c.K 1 n Z B D ",
"8 j G ; & 9 s ) W ` d.l.d.=./ T z.W.d.K ) &./ Y ] 4.4.O.( #.*X>X>XsXgXgX4XT. X4X8X0XxXNXBXBXmX^.W.(.].{.{.{.[.E.S.c.B r C ' ' D ",
"= L Y Y i O % ,.}  .l.d.=.Q T J z.&XK.;./ &.) &.9.7.r.7.@._ .XvXMXbXxX4X X X:X*X4XqXxXxXMXNXgXM.S._._.].].Q.W.L.V.p.N c ~ H Y #.",
"# G L Y R H H <.&.T &.) Y R W I d.H.H.h.|  .Y #.c.s.v.M.M.u.J.7X8X>X*X X=X4X.X=X0XxXgXxXvXmXpXj.C.W._._.W.E.L.L.b.e.c I #.l.Y.oX",
"I a n | ..) *.<. .I *.k.G.Y././.T.H.l.<.#.) Q ^ c.n.N.S.S.u.)  X*X4X4X0X0X*X*X8X0XqXdXqXqXvX4Xa.V.S.L.R.E.L.V.V.v.4.U -.T.@X%X@X",
":.R / S.x.;.=.` *.H.+X<X<X-X-X$X%X1X1X%X~.1.R 5.b.Z.V.S.C.a.T J.4XgXxXpX*X*X4X9X0X0XqXgX0XxX*Xu.j.M.V.V.V.Z.Z.N.g.[ i./././.@X@X",
"Y } ' +.h.x.0.k.%X%X+X+X+X$X-X$X%X%X<X,X<X%XH.0.c.Z.S.S.C.h.N ,..X*X*X*X*X4X4X9X9XsX0XdX4X9X:X_ @.j.M.b.N.b.N.c.e.[ H././.@X%X@X",
"V R i.R H [ x.^.@X+X+X+X,X%X<X<X<X1X,X<X;X$XH.r.c.V.S.K.C.j.6 Y d.D.F.J..X6X9X8X0X8X8XdXsX4X:Xd.V 8.h.p.s.v.c.t.5.o.K.oX@X#X#X@X",
"+.#.;.:.C X.$.h.R.(.%X-X<X-X<X2X2X2X2X3X2X;XR.9.c.N.S.S.V.i.= ` ~.D. X*X X X.X*X4X4X>X4X4X:XXXT.) ^ O.9.p.w.q.4.2.] !.oX@X@X%X%X",
"..#.%.'  .oX1.+.C.W.^.%X,X1X1X1X2X3XiX2X3X1XH.q.f.N.K.V.M.o.1 ,.*XsX XXX7X7X*X X.XOX*X X X XJ.G.=.5.3.5.q.7.4.4.( @./.(.@X@X%X,X",
"..#.#.U D.oXG.G.D.C.W.Q.&X2X1X1XiX1X,X2X2X<XH.7.j.n.N.v.M.N ` :X.XsXMX:X XXX7X4XOX XJ.T. XJ.G.l.$.j.j.6.7.4.q.4.4.8.^.@X@X,X,X%X",
"| o.| R Y.%X+X:X-XY.K.Q.[.%X2X1X,X,X1X2X2X%Xz.2.n.v.s.a.i.q J.+XsX*XpXSXxX=XJ.J.J.J.G.D.d.,.,.:.$.M.v.f.s.t.e.e.9.i.@X@X#X%X&X&X",
"Q +.} Y T.%X+X+X%X1XOXR.Q.}.{.,XiXiX,X2X2X,Xz.q.N.j.a.a._ ,.dX>X.XxX4X4XAXSXMXqX4X=X X XJ.J..XJ.i.n.j.c.v.f.s.s.5.z.#X$X%X;X;X1X",
"R ) } T J.#X+X%X-X%X2X<X/.R.}.eX,XiXiX2X1X;Xl.g.Z.M.g.p.z.pX0XjX*X8XjX8X=XqXvXMXbXxXfXsXsX9X:XJ.z.n.n.b.v.c.f.s.O.H.%X@X%X;X;X1X",
"n R / T D.-X+X%X%X<X<X<X3X-X^.Q.}.}.iX2X3X#Xi.r.A.S.N.N.H.gXhXxX2XpX9X9X7XOX+X*X*X*XXX.X X XJ.l.j.n.n.b.c.c.c.q.[ !.#X@X%X;XiX1X",
"= P Y I  .#X%X&X-X-X<X<X2X3X2X/.(.}.}.,X1X@Xi.7.N.N.N.v.z.9XcXvX7XpXxXqX8X>X4X4XpXpX9X7X7X7X$Xz.j.n.v.v.c.f.t.4./ X.oX%X$XiX;X2X",
"a F W H T l.<X%X<X<X,X2X3X3X3XpX;X(.}.eX,X#X;.w.b.N.N.v.i.7XMXBXdX*XsXvXvXxX0XsXgXsXsXpX7X:XJ.d.n.n.v.c.f.t.6.{ c P -.~.iX;X;X;X",
"L t q % Q U J.iX,X<X<X<X2X3X3X3X3X2X@X(.].Q.$.4.g.v.M.M.a.6XbXBXMX8X>X6XgXvXvXxXfXfXsX7X:X:XoXz.j.c.f.t.e.q.4.^ , 9 ` W k.:XiXiX",
"% : 1 % e ..I G.3X<X<X<X<X2X3X3X3X3X3X,X@XR.+.[ p.v.M.M.h.2XvXvXBXMXgXsX9X9XgXgXsXpXsXsXgXxX*Xi.p.s.f.t.q.2.( c 3 q 7 s 9 P D..X",
"< H q t 8 y ..T ,.+X3X3X,X3X3X<X3X,X3X3X,X(.+.( s.h.n.N.j.:XVXvXvXVXxXqXqX6X4X8XpXsXsXfXxX0XJ.o.9.w.t.q.2.2.A : 8 w y q < s s 9 ",
"1 r q F t + r  .` ' 1./.3XpX3XiXpXpX3X3X%Xk.n A 4.p.n.V.z.7XAXcXxXmXVXNXvXqX0X8X8X4X7X7X8X5XJ.i.q.r.6.2.( A g + 7 w y H F 9 p @ ",
"q e 1 F P : = t ` +.$.| #.1.D.H.G.D.k.#.} i ; N 3.a.n.M.a.+XSXBXxXxXvXvXMXNXVXMXbXxXgXgXhXjX~.s.f.e.2.( A l w 8 q q j G Y t t F ",
"; < # 8 Q j - s @ 2 Q ;.i.:.:.} ..#.#.| ` F 9 j { 9.j.j.9.d.qXSXvX8XxXxXxXxXxXxXxXxXvXvXMX;Xh.N.b.f.2.A g 4 : % 8 q w G Y 8 F =.",
"1 y : 3 n Y w O X < @ @ i F P F F P p 7 1 0 9 4 A 4.v.a.5.:X6X6XAXxX4X9XxXxXMXMXbXvXxXvX7Xj.j.v.s.6.( l h ; $ ; 6 w a G H H W :.",
"0 H 1 w v F P $ # 5 2 $ < e 1 s . . $ 9 u e 9 < N 3.a.a.$.,.VXhX4XVXAXvXxXgXxXxXxXjXjX$Xa.t.t.s.6.( l g q . $ 7 6 q F G L Y  .*.",
"L *.W L H 3 t p F s * * % m F X ; 9 t 0 9 t t = h 3.p.a.o.w -.VXVX9X8XgXgXhX0X7X>X:X!.i.t.f.q.q.2.l g g $   o $ ; 8 v I Y `  .*.",
"Q <.:.n 9 9 O y W F * 2 < R n   9 0 ; 7 7 0 t 8 5 ( a.3.{ q % E =XNXNXqX4X6X8X7XsX$Xi.q.e.q.4.{ A d 4 = $   o $ 8 q v H I Q  .&.",
"| L ` ` F F e 1 ; t ` 0 % X.F % 9 7 % 7 7 7 9 9 = ^ 0.u.( < % $ X E >.5XqXxXxXxXgXH.q.q.3.2.( A d 3 + O $     O s a q H H W ` X.",
"Y a 8 t s 1 s s 8 F &.E & t s 9 9 7 % $ % * % 7 % n 5.i.O.< X * 7 9 + + 7 s s 0 K 3.4.4.( A A M > + X $ $   o o % s *.Y H I W  ."
};
