/* XPM */
static char *_0e4509379344c11ac35b90eca2cd8f51EO0UypY1d4Qd2n7[] = {
/* columns rows colors chars-per-pixel */
"57 64 230 2 ",
"   c None",
".  c #0B0B07",
"X  c #0E0E09",
"o  c #100F0A",
"O  c #13120D",
"+  c #1A160F",
"@  c #161611",
"#  c #1B1A15",
"$  c #1F1E19",
"%  c #191712",
"&  c #0F100B",
"*  c #221B15",
"=  c #201F19",
"-  c #24231D",
";  c #2B241D",
":  c #2F281F",
">  c #33281E",
",  c #262520",
"<  c #292621",
"1  c #2C2A24",
"2  c #2F2E29",
"3  c #342D25",
"4  c #312E29",
"5  c #382F26",
"6  c #35322C",
"7  c #3A332B",
"8  c #3D3126",
"9  c #363531",
"0  c #393630",
"q  c #3D3933",
"w  c #3D3C38",
"e  c #47372C",
"r  c #443C34",
"t  c #4A3E34",
"y  c #433F39",
"u  c #4E392D",
"i  c #4B4036",
"p  c #45423C",
"a  c #4C443B",
"s  c #534335",
"d  c #53453A",
"f  c #53493F",
"g  c #5A4B3E",
"h  c #5A4538",
"j  c #644C3C",
"k  c #4C4945",
"l  c #544C44",
"z  c #5A4D43",
"x  c #504F4C",
"c  c #595148",
"v  c #595955",
"b  c #635245",
"n  c #6B5444",
"m  c #63554A",
"M  c #695648",
"N  c #66584D",
"B  c #6D5B4C",
"V  c #6E5847",
"C  c #735D4D",
"Z  c #775946",
"A  c #6C5D53",
"S  c #625C55",
"D  c #725F51",
"F  c #7B624E",
"G  c #7C6453",
"H  c #796658",
"J  c #66635F",
"K  c #7C6C61",
"L  c #7B7974",
"P  c #706D69",
"I  c #87664E",
"U  c #826652",
"Y  c #836D5B",
"T  c #896C57",
"R  c #926C56",
"E  c #8C725D",
"W  c #94735A",
"Q  c #9B755A",
"!  c #967359",
"~  c #A17A5D",
"^  c #836E62",
"/  c #8A7563",
"(  c #897667",
")  c #947B64",
"_  c #9B7C63",
"`  c #947D6D",
"'  c #947766",
"]  c #8F7D74",
"[  c #A57F63",
"{  c #A77D6C",
"}  c #9B836C",
"|  c #99816A",
" . c #9B8675",
".. c #89827B",
"X. c #AA8365",
"o. c #A3856B",
"O. c #AA866B",
"+. c #AE896D",
"@. c #A5856A",
"#. c #B48C6C",
"$. c #B08867",
"%. c #BA906D",
"&. c #A48B73",
"*. c #AC8C72",
"=. c #A38D7C",
"-. c #A78977",
";. c #B28D73",
":. c #B88D70",
">. c #AC937C",
",. c #AB9379",
"<. c #B69173",
"1. c #BB9373",
"2. c #B4947A",
"3. c #BC957B",
"4. c #BC997D",
"5. c #B39A7C",
"6. c #C39C7B",
"7. c #C29976",
"8. c #C7A07F",
"9. c #8B8885",
"0. c #999896",
"q. c #959089",
"w. c #AC9384",
"e. c #AA978A",
"r. c #B59C83",
"t. c #BC9C83",
"y. c #BC9F8B",
"u. c #B59785",
"i. c #AC8F83",
"p. c #BDA186",
"a. c #BDA38C",
"s. c #B5A188",
"d. c #BCA694",
"f. c #ACACAB",
"g. c #A3A3A0",
"h. c #B7ACA2",
"j. c #B6B2AE",
"k. c #BEBFBF",
"l. c #BDBEBF",
"z. c #BBBAB9",
"x. c #B9B7B4",
"c. c #C79A87",
"v. c #C69E90",
"b. c #C3A184",
"n. c #CBA384",
"m. c #C3A38B",
"M. c #CAA58B",
"N. c #CDA98C",
"B. c #C7A88D",
"V. c #D2AB8C",
"C. c #D0A68A",
"Z. c #C4A593",
"A. c #C4AA94",
"S. c #CDAB94",
"D. c #CCAD9A",
"F. c #C7A998",
"G. c #D3AD93",
"H. c #D3AD99",
"J. c #D8AD96",
"K. c #CCB29C",
"L. c #C9B198",
"P. c #D5B195",
"I. c #D9B296",
"U. c #D3B29C",
"Y. c #DAB59C",
"T. c #DDB99E",
"R. c #D7ADA2",
"E. c #CEB5A2",
"W. c #CCB7A6",
"Q. c #D4B5A2",
"!. c #D9B6A2",
"~. c #D4BAA4",
"^. c #DCBBA4",
"/. c #D4BDAA",
"(. c #DBBCAA",
"). c #D7B5AA",
"_. c #C8BDB5",
"`. c #D8BEB2",
"'. c #E1BDA4",
"]. c #E1BEAA",
"[. c #E2B7AC",
"{. c #DCC1AC",
"}. c #D9C1AA",
"|. c #C6C1BC",
" X c #DDC5B3",
".X c #DCC9B7",
"XX c #E5C3AC",
"oX c #E7C5AC",
"OX c #E3C5B3",
"+X c #E9C6B2",
"@X c #E5C9B3",
"#X c #EACBB4",
"$X c #EDCDBA",
"%X c #E5C7BA",
"&X c #EDD3BC",
"*X c #F0D2BE",
"=X c #CBC9C7",
"-X c #D4CCC6",
";X c #D7D2CD",
":X c #DDDCDB",
">X c #D3D2D1",
",X c #E9CAC1",
"<X c #EED4C1",
"1X c #EBD6C8",
"2X c #F2D5C3",
"3X c #F1D9C4",
"4X c #F3DCCB",
"5X c #F2D7CA",
"6X c #E2DBD6",
"7X c #F4DDD1",
"8X c #E8E2DD",
"9X c #F5E2D3",
"0X c #F7E7DC",
"qX c #E1E1E1",
"wX c #EDECEB",
"eX c #EBE7E4",
"rX c #F8EDE4",
"tX c #F3EBE8",
"yX c #F7F1EC",
"uX c #F6F5F4",
"iX c #FAF7F5",
"pX c #FBFBFB",
"aX c #FAFAFA",
"sX c #F9F9F9",
"dX c #FDFDFD",
"fX c gray99",
"gX c #FEFEFE",
"hX c white",
"jX c #FFFFFF",
"kX c #FBF8F7",
/* pixels */
"jxjxjxjxjxjxjxjxjxjxjxjxjxjxjxjxjxjxjxjxjxjxjxjxjxl.z.f.g.g.f.z.l.l.l.l.l.l.l.l.l.l.l.l.l.l.l.l.l.l.k.k.k.k.k.k.f.",
"pXpXpXpXdXdXpXpXpXpXdXdXpXpXpXpXpXdXpXpXpXpXpXwX=X9.x 9 , = 9 v L f.>XwXuXsXpXpXdXdXdXpXpXdXdXdXpXpXpXdXdXdXpXpX:X",
"dXdXdXdXdXdXdXdXdXdXdXdXdXdXdXdXdXdXpXpXpX:X0.x 2 * * 4 q 2 , 2 # , 9 w v 0.qXpXdXdXdXdXdXdXdXdXdXdXdXdXdXdXdXdXqX",
"dXdXdXdXdXdXdXdXdXdXdXdXdXdXdXdXdXdXwXz.P 1 # 1 p 0 y < , , 2 9 , # # @ @ & 2 0.wXdXdXdXdXdXdXdXdXdXdXdXdXdXdXdXqX",
"dXdXdXdXdXdXdXdXdXdXdXdXdXdXdXdX:X0.f # # $ , 1 # @ $ X X O O O @ @ & @ @ $ , & x >XdXdXdXdXdXdXdXdXdXdXdXdXdXdXqX",
"dXdXdXdXdXdXdXdXdXdXdXdXdXdXqX9.1 < 1 # $ 1 & O . . X o @ $ - . & & & . @ 9 2 $ # w x.sXdXdXdXdXdXdXdXdXdXdXdXdXqX",
"dXdXdXdXdXdXdXdXdXdXdXdXdX=Xx @ @ , @ $ @ @ & @ O 1 , , @ @ @ X & @ @ @ O @ 2 , < q 0 0.pXdXdXdXdXdXdXdXdXdXdXdXqX",
"dXdXdXdXdXdXdXdXdXdXdXdXz.k - - # 9 @ O O & $ @ @ @ 9 - @ $ 9 O @ & - $ $ @ @ @ @ - , - 9.uXdXdXdXdXdXdXdXdXdXdXqX",
"dXdXdXdXdXdXdXdXdXdXdX=Xk , - - @ @ @ $ $ - $ # # < : # & , & # @ X $ 9 0 # O O @ @ # # # q.pXdXdXdXdXdXdXdXdXdXqX",
"dXdXdXdXdXdXdXdXdXdXqXk 9 < % , = O - 2 $ - - 6 < - # $ @ < 1 q 2 $ 2 2 1 # @ # $ # & # 1 - f.dXdXdXdXdXdXdXdXdXqX",
"dXdXdXdXdXdXdXdXdX>Xk # < = O $ $ $ 0 0 - , 6 1 O & O - 6 1 @ 4 p - 2 , - $ - - 2 - @ & 1 $ q :XdXdXdXdXdXdXdXdXqX",
"dXdXdXdXdXdXdXdX=X6 @ 1 = @ X # - 1 p y $ 6 9 # O & # 6 , 1 $ = 6 2 2 6 3 ; - # 0 q # O @ # $ L dXdXdXdXdXdXdXdXqX",
"dXdXdXdXdXdXdX>X9 1 w 9 < O X $ 8 3 y 6 7 - @ @ O 1 5 0 f 1 # ; 3 ; 8 : 3 7 + + # 0 4 # - - - - :XdXdXdXdXdXdXdXqX",
"dXdXdXdXdXdXdXP @ $ q 6 2 - 1 < ; > 8 - - 7 ; + 5 6 i q r 3 # i h s s e > > > > * # : - - O @ @ 0.dXdXdXdXdXdXdXqX",
"dXdXdXdXdXdXwX6 % 0 $ 1 6 , 1 7 e s F s # * 8 f f d i f 8 i d d F F Q U F V j Z j > ; ; 4 @ & @ v pXdXdXdXdXdXdXqX",
"dXdXdXdXdXdXqX2 + O . - p 7 ; t I R j F I E @.} &.@.E V j | E E  .5.4.p.8.5.X.X.X.I s ; - 4 @ & 4 wXdXdXdXdXdXdXqX",
"dXdXdXdXdXdX:X6 * . . 1 - p 7 F R Q #.%.4.B.N.P.P.L.B.5.} &.a.a.8.V.I.I.V.8.7.%.%.X.I s 6 q - & - :XpXdXdXdXdXdXqX",
"dXdXdXdXdXdXqX6 + . O , % 6 i G Q X.%.7.n.B.N.V.V.T.T.T.~.B.P.}.'.I.I.8.8.8.7.%.%.#.I I 5 6 $ & # =XdXdXdXdXdXdXqX",
"dXdXdXdXdXdXwX0 o X O # # p V R Q X.7.8.8.8.N.V.I.T.}.oXoX#X#X#XoX'.T.I.I.8.8.7.%.%.Q ! s ; - $ # z.dXdXdXdXdXdXqX",
"dXdXdXdXdXdXsXk O . O O - q M W ~ $.6.8.8.V.I.I.'.oX&X&X3X3X3X3X&X#X#X'.'.'.V.8.7.7.~ I j : ; X O f.dXdXdXdXdXdXqX",
"dXdXdXdXdXdXdXJ + O o X $ 6 M W | %.8.8.V.V.I.'.oX#X#X&X&X3X4X&X&X&X#XoXoX'.I.8.8.6.X.R n 1 6 X X f.dXdXdXdXdXdXqX",
"dXdXdXdXdXdXdX9.O o o . # q b W ~ 7.8.I.I.T.oX#X&X&X3X3X4X4X9X9X3X3X&X&XoXoXI.I.V.C.%.Q F c 4 X @ f.dXdXdXdXdXdXqX",
"dXdXdXdXdXdXdXj.+ O X . @ q M T X.$.8.I.I.T.oX#X&X3X9X9X9X9X9X9X9X3X3X&X#XoX'.T.T.V.%.| F l ; @ O x.dXdXdXdXdXdXqX",
"dXdXdXdXdXdXdX>X# # . X @ 6 s F X.%.N.T.T.T.oXoX#X&X&X3X3X3X3X&X&X&X&X#XoX'.'.'.}.V.7.~ V q @ # @ |.dXdXdXdXdXdXqX",
"dXdXdXdXdXdXdXwX0 1 X O $ - : F X.#.N.T.^.XXXXXXoX#X#X#X#X#X&X&X#X#XoXoX'.'.'.T.Y.G.4.~ V 7 o # # >XdXdXdXdXdXdXqX",
"dXdXdXdXdXdXdXpXJ 1 $ # O . ; I X.+.N.U.T.T.'.XXXX#X#XoX#X#X#X#X#XoX'.oX'.'.'.T.Y.G.1.X.n ; + O 1 qXdXdXdXdXdXdXqX",
"dXdXdXdXdXdXdXtX^ 3 # o . o e W O.+.8.N.H.H.^.OX#X&X&X3X3X2X2X2X3X3X&X#XoX}.I.I.P.N.:.O.U # O O d 6XdXdXdXdXdXdXqX",
"dXdXdXdXdXdXdX=XE G - . X - U X.+.+.<.5.o.u.y.D.@X3X0XrXyXrX9X9X9X4X3X3X@XL.p.8.2.4.+.O.Q : o O T ;XdXdXdXdXdXdXqX",
"dXdXdXdXdXdXdX_.w.-.> O # 8 Q O.+.O._ n z z m A ( d.8XrXyXyXyXrXrX1X,X/. .H g b m C Q O.@.d . e Y 8XdXdXdXdXdXdXqX",
"dXdXdXdXdXdXdX6XF.v.h + * s _ O.#.| j v ^ ( H z l A i.,X7XrXrX0X7X Xd.K f i f N H z b O.O.V o * K sXdXdXdXdXdXdXqX",
"dXdXdXdXdXdXdXyXF.Q.F.3 - n | *.+.n i ( e.F.F.a.} G  .d.&X4X0X7X<XW.=.H G } A.}.e.^ e U o.C O u i.dXdXdXdXdXdXdXqX",
"dXdXdXdXdXdXdXuXv.OX{.s > G X.*.o.T | F.Z.,.,.u.Q.Z.u.Q.XX&X7X&X@XF.2.D.K.a.5.5.D.w.M C o.D : -.K.fXdXdXdXdXdXdXqX",
"dXdXdXdXdXdXdX8XQ.$X@XG 6 H _ +.2.p.E.E._ ] u n  .v.t.m.!.@X4X<XY.5.D.>.G j ' W 2./.d._ } B e ).%XkXdXdXdXdXdXdXqX",
"dXdXdXdXdXdXdX1X`.5X<XK.i G _ o.t.}.(.4.;.-.I Z ;X.XS.2.K.@X4X#Xb.r.D.h.n j e.i.! }.{.4.) C U 1X5XkXdXdXdXdXdXdXqX",
"dXdXdXdXdXdXdX1X%X2X9XT.j H _ o.p.(.!.S.S.(.(.D.S.S.S.3.m.^.$XXX2.2.A.D.2.d.S.c.4.U.S.4._ G W.7X2XkXdXdXdXdXdXdXqX",
"dXdXdXdXdXdXdXtX+X$X4XU.B H ! @.L.!.(.^.U.(.].(.Q.H.S.b.4.^.+X'.<.c.M.S.!.^.Y.A.D.(.P.B._ G Z.$X%XpXdXdXdXdXdXdXqX",
"dXdXdXdXdXdXdXpX(.(.%XD.D H | <.S.(.XX@XoX].+X#XOXXXS.1.6.^.OXT.:.;.H.'.{. X^.(.^.{.!.B.*.Y -.(.`.fXdXdXdXdXdXdXqX",
"dXdXdXdXdXdXdXdX`.Z.OXQ.Y C @.2.U.^.{.#X$X'.'.'.].J.n.1.M.J.^.J.c.#.6.J.XXOX+X#X@XY.U.P.r.H y.u..XdXdXdXdXdXdXdXqX",
"dXdXdXdXdXdXdXdX1Xm. XS.^ N _ r.m.H.(.XX+X].+XoXoXI.n.6.G.I.I.J.6.:.n.V.J.J.!.'.XX!.b.N.m.Y r.y.eXdXdXdXdXdXdXdXqX",
"dXdXdXdXdXdXdXpX6X-.Q.!.C m / t.b.H.].$X2X*X+X+X].J.n.c.H.G.I.J.3.1.6.J.Y.].+X+X].XXP.4.p./ =. .eXdXdXdXdXdXdXdXqX",
"dXdXdXdXdXdXdXdXtXr.Q.^.G a Y ;.m.^.+X*X5X7X5X<X*X+XJ.S.M.V.!.T.3.1.N.].XX+X+X+X+XoX'.M.;.| =.&.eXdXdXdXdXdXdXdXqX",
"dXdXdXdXdXdXdXdXdXW.H.%X` 6 D *.p.!.+X$X5XrXrX4X,X+XI.M.v.H.!.^.c.;.G.+X5X5X5X<X$X+X[.G.*.E / s.uXdXdXdXdXdXdXdXqX",
"dXdXdXdXdXdXdXdXdXtX).`.E ; V o.t.U.+X$X2X5X+X!.^.S.v.S.t.H.Y.XXM.*.c.V.[.XX<X2X*X+X'.M.*.E F |.fXdXdXdXdXdXdXdXqX",
"dXdXdXdXdXdXdXdXdXdXiX8XA * M o.2.U.].$X$X^.Q.+X].S.Y.!.v.N.H.].M.:.m.v.J.!.(.#X$XOX^.M.+.| B wXdXdXdXdXdXdXdXdXqX",
"dXdXdXdXdXdXdXdXdXdXdXdX9.- V o.*.S.^.Q.D.~.(. XXXF.Q.{.R.Z.R.[.v.t.H.Z.!.[.U.U.].].!.2.5.&.H yXdXdXdXdXdXdXdXdXqX",
"dXdXdXdXdXdXdXdXdXdXdXdX_.; j +.+.m.y.Y ( >.=.F.A.w.` w.Q.D.%X1XS.M.a.-.K.D.m.r.2.Z.U.3.D.*...aXdXdXdXdXdXdXdXdXqX",
"dXdXdXdXdXdXdXdXdXdXdXdXeXr s &.&.U. .s N H H  .-.^ g m ' u.R.`.v.( N D &.` ' H B ^ U.t.U.o.h.fXdXdXdXdXdXdXdXdXqX",
"dXdXdXdXdXdXdXdXdXdXdXdXpXP u | o.L.2.i z g s B N b l a N S i. .H N N b M b t i t b }.m.K.| ;XfXdXdXdXdXdXdXdXdXqX",
"dXdXdXdXdXdXdXdXdXdXdXdXdXf.t E @.a.d.| a.}.e.h d d r t t e K i m z d m c s i V a F }.a.a.&.uXdXdXdXdXdXdXdXdXdXqX",
"dXdXdXdXdXdXdXdXdXdXdXdXdXeXf G | 5.~.L.}.}.}.r.` D d t k N K k k z y h h T L.}.Y A.U.p.>._.dXdXdXdXdXdXdXdXdXdXqX",
"dXdXdXdXdXdXdXdXdXdXdXdXdXpXq.b | } L.}.}.}..X}.v.c.u./ D -.{ z e e n R X.L.XX}.K..X5.p.,.wXdXdXdXdXdXdXdXdXdXdXqX",
"dXdXdXdXdXdXdXdXdXdXdXdXdXdX8XA | &.8.L.W..X.X}.R.v.c.c.R.).F.R.c.c.c.3.b.K.}..X.XL.>.o._.dXdXdXdXdXdXdXdXdXdXdXqX",
"dXdXdXdXdXdXdXdXdXdXdXdXdXdXdXx.H | 5.s.h.}.}.}.R.R.H.R.,XrX7X,XR.R.c.c.a.~.}..XL.p.&.w.uXdXdXdXdXdXdXdXdXdXdXdXqX",
"dXdXdXdXdXdXdXdXdXdXdXdXdXdXdXiXe.H &.8.p.}.}.}.W.R.D.S.[.[.%X%XR.R.v.y.a.}.}.W.5.,.| 6XdXdXdXdXdXdXdXdXdXdXdXdXqX",
"dXdXdXdXdXdXdXdXdXdXdXdXdXdXdXdXeX .| 5.5.L.}.|./.d. .=.] ` ` =.q.-.` =.d.}.}.s.5.} |.kXdXdXdXdXdXdXdXdXdXdXdXdXqX",
"dXdXdXdXdXdXdXdXdXdXdXdXdXdXdXdXsX6X| &.,.s.L.}.E.-.B g z i d N b z B ( d.K.d.&.} s.iXpXdXdXdXdXdXdXdXdXdXdXdXdXqX",
"dXdXdXdXdXdXdXdXdXdXdXdXdXdXdXdXdXdX6X .o.,.L.}.K.| H c i i i c l t l C d.L.w.|  .eXdXdXdXdXdXdXdXdXdXdXdXdXdXdXqX",
"dXdXdXdXdXdXdXdXdXdXdXdXdXdXdXdXdXdXfX;X) | s.E.d.c f i 0 3 r a t t r b a.a.| H ;XdXdXdXdXdXdXdXdXdXdXdXdXdXdXdXqX",
"dXdXdXdXdXdXdXdXdXdXdXdXdXdXdXdXdXdXdXdX-X| } d.a.m g a i q 7 r r l r z s.| V x.dXdXdXdXdXdXdXdXdXdXdXdXdXdXdXdXqX",
"dXdXdXdXdXdXdXdXdXdXdXdXdXdXdXdXdXdXdXdXpX|.K =.&.f f c a i p l A k r b } B h.aXdXdXdXdXdXdXdXdXdXdXdXdXdXdXdXdXqX",
"dXdXdXdXdXdXdXdXdXdXdXdXdXdXdXdXdXdXdXdXdXfX-X..| c f x c c k k c c a l J x.aXfXdXdXdXdXdXdXdXdXdXdXdXdXdXdXdXdXqX",
"dXdXdXdXdXdXdXdXdXdXdXdXdXdXdXdXdXdXdXdXdXdXpX6X..S a r a S 6 a c a k v |.dXdXdXdXdXdXdXdXdXdXdXdXdXdXdXdXdXdXdXqX",
"dXdXdXdXdXdXdXdXdXdXdXdXdXdXdXdXdXdXdXdXdXdXdXdXuX|.L f q v 4 7 a l ] :XdXdXdXdXdXdXdXdXdXdXdXdXdXdXdXdXdXdXdXdXqX",
"dXdXdXdXdXdXdXdXdXdXdXdXdXdXdXdXdXdXdXdXdXdXdXdXpXpXuX:Xx.g.9.9.g.>XpXdXdXdXdXdXdXdXdXdXdXdXdXdXdXdXdXdXdXdXdXdXqX"
};
