/* XPM */
static char *e0b75b8411404b37d92f877a32caa02bHBxLBda1ztk24tq3[] = {
/* columns rows colors chars-per-pixel */
"61 64 230 2 ",
"   c #010202",
".  c #0A0404",
"X  c #05060A",
"o  c #090809",
"O  c #0B0B0C",
"+  c #120503",
"@  c #1A0906",
"#  c #130B0A",
"$  c #1B0E0A",
"%  c #15110F",
"&  c #1B110E",
"*  c #0E0E10",
"=  c #141211",
"-  c #1C1312",
";  c #1A1919",
":  c #210B0A",
">  c #2B110D",
",  c #3B1A0E",
"<  c #291A17",
"1  c #351A15",
"2  c #24201D",
"3  c #38231D",
"4  c #242425",
"5  c #2D2927",
"6  c #362924",
"7  c #323232",
"8  c #3C3533",
"9  c #6F150D",
"0  c #44231B",
"q  c #4A261B",
"w  c #562B1D",
"e  c #7F281B",
"r  c #452B26",
"t  c #572925",
"y  c #47322A",
"u  c #55362A",
"i  c #483833",
"p  c #513D34",
"a  c #772524",
"s  c #673A2E",
"d  c #78392D",
"f  c #5B443B",
"g  c #7B4B28",
"h  c #684639",
"j  c #474748",
"k  c #554946",
"l  c #565454",
"z  c #6D4C43",
"x  c #6B564C",
"c  c #7D5D4E",
"v  c #695C56",
"b  c #725C56",
"n  c #6F6359",
"m  c #76675C",
"M  c #726E6C",
"N  c #8A281E",
"B  c #8B3927",
"V  c #963431",
"C  c #95432F",
"Z  c #84473B",
"A  c #934E38",
"S  c #995B38",
"D  c #A34D3B",
"F  c #9E673F",
"G  c #A66839",
"H  c #AB733D",
"J  c #B57736",
"K  c #A33D42",
"L  c #89594B",
"P  c #93554B",
"I  c #9A5A49",
"U  c #AA5447",
"Y  c #946958",
"T  c #9A6859",
"R  c #AC6945",
"E  c #AF7243",
"W  c #B67B46",
"Q  c #AC6B55",
"!  c #A86A58",
"~  c #B66B5A",
"^  c #BC7659",
"/  c #8F776B",
"(  c #9B7768",
")  c #A77765",
"_  c #B77A68",
"`  c #C55C5E",
"'  c #C16E56",
"]  c #C67B65",
"[  c #D9726E",
"{  c #EA7079",
"}  c #BB854A",
"|  c #978475",
" . c #BA8468",
".. c #AB8773",
"X. c #BB8A77",
"o. c #BC927C",
"O. c #C28E54",
"+. c #C6856B",
"@. c #D88A6E",
"#. c #CB9569",
"$. c #C88A76",
"%. c #D68C75",
"&. c #C49076",
"*. c #C5947C",
"=. c #CB937C",
"-. c #CC9A7C",
";. c #DB9172",
":. c #D6957A",
">. c #DA937C",
",. c #E6987A",
"<. c #E49B7D",
"1. c #DEA96D",
"2. c #EBA27E",
"3. c #FB7B85",
"4. c #888888",
"5. c #959595",
"6. c #B29383",
"7. c #BDA896",
"8. c #A2A2A2",
"9. c #B7B0AD",
"0. c #BBBBB9",
"q. c #C79984",
"w. c #CC9B83",
"e. c #C39E89",
"r. c #D39C84",
"t. c #DB9C82",
"y. c #D79B88",
"u. c #F38788",
"i. c #E49D83",
"p. c #C2A28E",
"a. c #CAA189",
"s. c #D8A585",
"d. c #D3A58D",
"f. c #DDA38B",
"g. c #C4A695",
"h. c #D6A792",
"j. c #DCAD93",
"k. c #DDB299",
"l. c #E5A384",
"z. c #ECA485",
"x. c #E4A58B",
"c. c #E4AA8D",
"v. c #E9A888",
"b. c #ECAC8C",
"n. c #F6A685",
"m. c #F4AC8B",
"M. c #FBAD8C",
"N. c #EEB18E",
"B. c #FDB18F",
"V. c #E5AB92",
"C. c #E6A894",
"Z. c #EAAD93",
"A. c #EDB393",
"S. c #E4B398",
"D. c #EBB49B",
"F. c #EDBA9B",
"G. c #F4B493",
"H. c #FCB493",
"J. c #FCB996",
"K. c #F3B599",
"L. c #F8B799",
"P. c #F3BB9C",
"I. c #FBBC9B",
"U. c #CAB7A9",
"Y. c #DAB8A3",
"T. c #E4B6A3",
"R. c #E5BBA3",
"E. c #ECBCA2",
"W. c #ECBFAA",
"Q. c #F3BEA2",
"!. c #FDBAA2",
"~. c #FBC19D",
"^. c #DBC2AE",
"/. c #C2C1BD",
"(. c #DAC1B2",
"). c #ECC3A9",
"_. c #EDC3AC",
"`. c #F4C1A4",
"'. c #FBC5A3",
"]. c #FCC9A7",
"[. c #F3C5AB",
"{. c #FAC6AA",
"}. c #F5C9AD",
"|. c #FBCBAC",
" X c #FFD1AF",
".X c #E9C9B4",
"XX c #F8C7B3",
"oX c #F4CBB3",
"OX c #FBCDB2",
"+X c #F3CFB9",
"@X c #EED1B9",
"#X c #F6D1B7",
"$X c #FCD2B4",
"%X c #FDD2B5",
"&X c #F4D3BC",
"*X c #FED5B9",
"=X c #FCD5BC",
"-X c #FED9BD",
";X c #C4C4C5",
":X c #C4C5C6",
">X c #CCCAC9",
",X c #DAD3CA",
"<X c #D3D3D4",
"1X c #DCDCDB",
"2X c #EDDACB",
"3X c #FCD6C1",
"4X c #F5D9C3",
"5X c #FDDCC3",
"6X c #F4DBCC",
"7X c #FDDFC8",
"8X c #E7DDD5",
"9X c #FEE1C5",
"0X c #FDE2CB",
"qX c #FCE9CF",
"wX c #FBE6D3",
"eX c #FEEDD4",
"rX c #F7E6D9",
"tX c #FDF1D7",
"yX c #FDF4DB",
"uX c #FCF9DE",
"iX c #E7E7E7",
"pX c #F8EDE2",
"aX c #F9F6E5",
"sX c #FBF3EB",
"dX c #FCF7F1",
"fX c #F8F8F4",
"gX c #FDFCFC",
"hX c #FDFDFD",
"jX c #FDFEFD",
"kX c white",
/* pixels */
";X;X;X;X;X;X;X;X;X;X;X;X/.p.e.p.p.p.p.p.p.p.7.p.p.p.p.a.p.p.p.q.&.X.&.*./.;X;X;X;X;X;X;X;X;X;X;X;X;X;X;X;X;X;X;X;X;X;X;X;X",
"kXkXkXkXkXkXkXkXkXkXkXkX5X]. X$X$X*X*X*X*X*X*X*X*X*X X X$X*X$X|.~.J.B.B.5XkXkXkXkXkXkXkXkXkXkXkXkXkXkXkXkXkXkXkXkXkXkXkXkX",
"fXkXkXkXgXgXgXgXgXgXgX&X~.'.'.].'.|.|.|. XOX X$XOX X}.].'.|.|.].].I.M.n.n.3XkXgXgXgXgXkXgXgXgXgXgXgXgXgXgXgXgXgXgXgXgXgXgX",
"fXkXkXkXkXkXkXkXkXkXwX~.].].'.~.~.'.|.|.OX$X$X$X$XOX X].].|.|.].].|.I.M.n.n.rXkXkXkXkXkXkXkXkXkXkXkXkXkXkXkXkXkXkXkXkXkXkX",
"gXkXkXkXkXkXkXkXkXfX].'.'.~.'.~.~.~.'.|.$X*X$X-X*X$X$X].].].|.|.|.'.'.H.M.2.L.dXkXkXkXkXkXkXkXkXkXkXkXkXkXkXkXkXkXkXkXkXkX",
"kXkXkXkXkXkXkXkXkX9X~.'.~.~.~.'.I.'.'.|.$X*X-X3X-X-X$X|.].].|.|.|.'.'.J.H.M.n.3XkXkXkXkXkXkXkXkXkXkXkXkXkXkXkXkXkXkXkXkXkX",
"kXkXkXkXkXkXkXkXdX].].'.~.~.].'.~.'.'.].*X-X-X*X#X$X$X|.].].OX|.|.|.'.'.!.J.m.L.sXkXkXkXkXkXkXkXkXkXkXkXkXkXkXkXkXkXkXkXkX",
"kXkXkXkXgXkXkXkX0X'.|.'.~.'.].].'.'.].].$X$X*X*X$X$X X|.}.].|.|.|.$X].'.].K.Z.v.6XkXkXkXkXkXkXkXkXkXkXkXkXkXkXkXkXkXkXkXkX",
"kXkXkXkXkXkXkXkXoX'.].'.'.'.].].'.'.'.'.{.%X*X$X$XoX}.}.}.OX#XOX|.}.~.F.~.~.L.z.[.gXgXgXkXkXkXkXkXkXkXkXkXkXkXkXkXkXkXkXkX",
"kXkXkXkXkXkXkXfXP.'.'.'.'.'.].~.~.'.'.].|.|.|. X}.}.#X5X-X%X|.~.F.~.A.G.J.~.J.v.V.sXkXkXkXkXkXkXkXkXkXkXkXkXkXkXkXkXkXkXkX",
"kXkXkXkXkXkXkXpXA.].'.'.'.'.J.J.J.!.'.'.$X[.`.}.oX%X9X&X_.S.}.{.OX`.]. X#X].~.m.>.8XkXkXkXkXkXkXkXkXkXkXkXkXkXkXkXkXkXkXkX",
"kXkXkXkXkXkXkXpXF.'.].'.I.J.H.B.J.I.{.OX`._.|.|.|._.k.d.).$X$X%X}.R.).-X9X{.J.n.,.(.gXkXkXkXkXkXkXkXkXkXkXkXkXkXkXkXkXkXkX",
"kXkXkXkXkXkXkXsXF.'.'.'.J.B.M.B.L.!.{.[.}.%XOX).).F.S.}.#XOX[.'.}.5X5X0X0X].J.z.+.g.kXkXkXkXkXkXkXkXkXkXkXkXkXkXkXkXkXkXkX",
"kXkXkXkXkXkXkXsXK.G.~.'.J.H.B.H.H.L.`.Q.|.$X$XoX}.}.}..X#X=X%X%X-X-X*X0X*X'.+.s > r 1XkXgXkXkXkXkXkXkXkXkXkXkXkXkXkXkXkXkX",
"kXkXkXkXkXkXkXfXD.m.J.!.J.H.H.H.H.G.K.P.].}.F.F.).oX-X9X9X9X0X5X#X|.|.oXoX_ > . f h /.gXgXkXkXkXkXkXkXkXkXkXkXkXkXkXkXkXkX",
"kXkXkXkXkXkXkXkXQ.z.J.J.J.H.M.B.v.G.K.K.P.F.oX-XqX0X@X.XU.^.#X4X].G.N.b.P.u . @ < h ,XgXkXkXkXkXkXkXkXkXkXkXkXkXkXkXkXkXkX",
"kXkXkXkXkXkXgXkXoXi.H.H.B.B.n.n.B.G.m.M.K.OX7X7X7.m i 8 6 6 r z ) ;.2.:.d.< - m v   >XkXgXkXkXkXkXkXkXkXkXkXkXkXkXkXkXkXkX",
"kXkXkXkXkXkXgXkX6X,.m.B.B.B.m.B.H.m.m.L.`.XXY.v = $ = . + + + @ 6 Z b.A.o.- o k 6.y ,XkXgXkXkXkXkXkXkXkXkXkXkXkXkXkXkXkXkX",
"kXkXkXkXkXkXkXkXpX;.<.n.B.J.H.H.G.m.m.Q.].D.x i ) =.P 3 & & # # > 1 e.9X4Xb O m w.~ .XkXgXkXkXkXkXkXkXkXkXkXkXkXkXkXkXkXkX",
"kXkXkXkXkXkXkXkXgXt.@.>.i.P.G.G.m.M.G.Q.I.6./ Q.%.d b / x < > > s L e.tXtXoX! Q B B R.gXkXkXkXkXkXkXkXkXkXkXkXkXkXkXkXkXkX",
"kXkXkXkXkXkXkXgXgXT.] ] :.N.b.v.z.n.A.'.b.f.`.b.d b k i 9.g.P d ~ <.>.@XuX9X^ 9 9 C G.sXgXkXkXkXkXkXkXkXkXkXkXkXkXkXkXkXkX",
"kXkXkXkXkXkXkXkXkX2X$.+.+.-.a.s.x.l.D.P.b.Z.~.Q t 2 . # >X8X:.D @.`.A.c.qXuXF.C C ^ Q.4XgXkXkXkXkXkXkXkXkXkXkXkXkXkXkXkXkX",
"kXkXkXkXkXkXkXkXkXfXt.$.&.*.a.-.w.x.P.~.A.b.>.d q x 5 M 2Xy.D D `.6X%XF.#XuXqX&.] v.P.[.fXkXkXkXkXkXkXkXkXkXkXkXkXkXkXkXkX",
"kXkXkXkXkXkXkXkXdXrXR.$. .&.w.*.w.s.F.'.P.z._ A ~ ] +.$.~ B e I -XwX0X}.*XyXyX-X:.G.Z.E.pXgXkXkXkXkXkXkXkXkXkXkXkXkXkXkXkX",
"kXkXkXkXkXkXkXgX&Xf.4X+Xk.*. .*.a.s.F.|.|.'.v.<.2.@.] R D D N  .wXqXwX=X=XyXyXeX`.b.A.D.pXkXkXkXkXkXkXkXkXkXkXkXkXkXkXkXkX",
"kXkXkXkXkXkXkXgXR.N ~ T._.oXk.X.-.S.F.$X-X-X-X{.~.A.l.;.;.~ Q &X0X4X7X3X-XtXaXyX9XA.c.Z.rXgXkXkXkXkXkXkXkXkXkXkXkXkXkXkXkX",
"kXkXkXkXkXkXgXkX4XN U C.oXy.T.T.-.c.P.~.-XqXeXwX=XOX|.G.,.;.}.-XOX{.*X0X-XtXuXuXtX Xs.:.pXgXgXgXkXkXkXkXkXkXkXkXkXkXkXkXkX",
"kXkXkXkXkXkXkXkXgXq.U 3XwX&Xu.C.:.l.G.N.#XtXyXyX0X=X=X{.D.[.OX}.Q.`.$X#X-XtXuXuXyX XN.:.pXgXgXgXkXkXkXkXkXkXkXkXkXkXkXkXkX",
"kXkXkXkXkXkXkXkXgXpX_ +Xy.U !.3Xx.;.m.A.#XyXyXyXeX0X#XQ.Q.[.`.~.P.P.G.C.&XeXyXuXtX XG.N.rXgXkXkXkXkXkXkXkXkXkXkXkXkXkXkXkX",
"kXkXkXkXkXkXkXkXkXkXT.S.] V q.yXoX] z.v.[.tXyXeXqX7X[.E.Q.`.`.!.`.D.<.x.=XtXeXeXyXj.v.G.8XgXkXkXkXkXkXkXkXkXkXkXkXkXkXkXkX",
"kXkXkXkXkXkXkXkXkXgXrXoXW.XXy.e.yX>.;.i.E.9XeXwX0X3X[.W.[.'.Q.{.'.K.+.=...f i / ( u f.P.6XgXkXkXkXkXkXkXkXkXkXkXkXkXkXkXkX",
"kXkXkXkXkXkXkXkXkXkXgX0X3X3X3XT.3XC.@.i.b._.@X&X5X=XoX`.OXOX[.[.A.K.j...( ( L <   3 ..A.6XgXkXkXkXkXkXkXkXkXkXkXkXkXkXkXkX",
"kXkXkXkXkXkXkXkXkXkXkXsX4XY._.0XW.t.t.t.i.E..X+X4X+XQ.}.-X*X}.`.K.OX5X9X-X|.'.i c -.) =.rXgXkXkXkXkXkXkXkXkXkXkXkXkXkXkXkX",
"kXkXkXkXkXkXkXkXkXkXkXkXsX(.Y.0X7XT.C.x.t.Z.E.Q.`.`.OX*X5XoX`.P.`.0X3X*X].A.~...Z.] Z I pXkXkXkXkXkXkXkXkXkXkXkXkXkXkXkXkX",
"kXkXkXkXkXkXkXkXkXkXkXkXkXkXsX5X+XC.$.C.x.c.E.D.E.#X=X3X7X3X{.K.oX7X*X|.OX$Xd.) d a V X.sXkXkXkXkXkXkXkXkXkXkXkXkXkXkXkXkX",
"kXkXkXkXkXkXkXkXkXkXkXkXkXgXkXkXwX_ t X.c.C.D.E.oX=X5X9X0X5X`.D.#X*X$X-XoXY 9 a K [ ` _ sXkXgXkXkXkXkXkXkXkXkXkXkXkXkXkXkX",
"kXkXkXkXkXkXkXkXkXkXkXkXkXkXkX<X>XT t z w.i.C.C.D.[.=X7X4XXXP.[.=X=X_.q.P K { 3.3.[ ~ d.sXkXgXkXkXkXkXkXkXkXkXkXkXkXkXkXkX",
"kXkXkXkXkXkXkXkXkXgXgXkXkX4.7   X T ] Z L -.t.i.c.D.Q.#X#XQ.Q.oX=XY.q.*.[ u.u.[ $.~  .j.fXkXgXkXkXkXkXkXkXkXkXkXkXkXkXkXkX",
"kXkXkXkXkXkXkXgXkXkXkXfXl         z D.t.Q T w.f.x.C.E.W.).[.XX[.Q.c.c.l.#.;.k.k.-.W } J .XgXgXgXkXkXkXkXkXkXkXkXkXkXkXkXkX",
"kXkXkXkXkXkXkXkXkX<X8.5   .       p L.K.l._ ! q.f.r.y.d.y.h.E.T.C.x.t.@.%.l.c.#.} O.} H } U.iXfXgXkXkXkXkXkXkXkXkXkXkXkXkX",
"kXkXkXkXkXgXgX>X7             .   x '.K.K.s.^ T *.w.$.r.=.w.w.f.i.D.oX+X+XK.v.#.W H W G J g % 4.kXkXgXgXkXkXkXkXkXkXkXkXkX",
"kXkXkXkXkXgXkXl     .             ..%X`.!.Q.:.Q T _ q.t.y.w.h.h.).+X5X7X}.A.1.#.G F G W G H &   5.kXgXgXgXkXkXkXkXkXkXkXkX",
"kXkXkXkXkXkXiX=                   q.$X].!.!.D.w.X.! T T $.D.C.E.}.S.[.oX`.N.1.} E S H H H Z <     8 >XkXkXkXkXkXkXkXkXkXkX",
"kXkXkXkXgXkX5.  .             .   x $X].%X!.{.D.f.d.X.L s L  .y.S.`.).R.j.1.} E } G G g q 3 o   X   o 4.<XfXkXkXgXkXkXkXkX",
"kXkXkXgXgXiX4                     2 #X+X*X*XOX|.W.W.C.q.! s q w h T _  . .g S E F t 1 #   .       X       4 j 5.kXgXgXkXkX",
"kXkXkXgXgX>X      X X               6.-X%X*X3X7X3X!.Q.C.q.X.) L w > @ 1 u 0 > r 3               X               l fXkXgXkX",
"kXkXkXkXkX>X      X X           .   i 5XOX-X9X0X3XXX!.L.K.L.D.w.T r +     # - .                             . X   l gXgXkX",
"kXkXkXkX1X7 .     X X X               7.9X=X0X7X3X3X!.!.!.!.K.D.&.t :                 .                         X   5.kXgX",
"kXkXgXkX5.        X X X X             5 #X0X3X9X3X3X=XoX{.{.K.r.T q :           8 1 3 :     X X                     4 fXkX",
"kXkXgXgX<Xn ; X     X X X               5 7.tX0X3X=X3X&XW.).c.w.L , $           l b < >       X X X                 . 8.kX",
"kXkXgXgXkX0.4   X X   X X                   m 4XrX3X%X=XXX!.K.w.h u =           = < @ @ . X X X X X                   7 kX",
"gXgXkX1Xj     X X X X   X                     4 g.eX5XXXXX{.L._ L z .           X # > $   X X X o X X                   0.",
"kXkX5.;       X   X X X   X                 .     m 4XeX=X}.K.y.o.<                 k k . X X X X X X X X               j ",
";Xj             X   X X X                     .     ; | 4X5X].S.f                   < < 1 X X X X X X X   X             O ",
"o                   X X X                               5 | d.Y                     = v y : X X X X X o X                 ",
"            X         X X X                 O j j   .       o                       X 3 < # X X O X X O X X X           X ",
"        X         X   X X X                 o 4 j o                                   - i > o   * X X X X X               ",
"    X                 X X X X X X             .                                       < u q :   X O X X X X X           X ",
"                    X X X X X X                                                       # 0 0 =   X X X O X O X           X ",
"X       X X X   X     X X X X X X X                               X                     # p 1 . X X X X X X X             ",
"X   X X X X X X     X X X X X X X             X                     X                   . , w 0   X X X X X X           o ",
"X X X X X X X   X X       X X   X X X                     X                               > f 0 ;   X X X X X           ; ",
"X X X X X X X   X X X X   X X X X   X   X   X       X                 X                   . + 8 y o X X X O X           5 ",
"X X X X X X X X X X     X     X X X X X   X     X   X             X                           & , 1   X X X             7 "
};
